<mxfile host="65bd71144e">
    <diagram id="YhUncSPGHS1Z8SVNTWDY" name="Page-1">
        <mxGraphModel dx="1011" dy="620" grid="1" gridSize="10" guides="1" tooltips="1" connect="1" arrows="1" fold="1" page="1" pageScale="1" pageWidth="850" pageHeight="1100" math="0" shadow="0">
            <root>
                <mxCell id="0"/>
                <mxCell id="1" parent="0"/>
                <mxCell id="lQ8-b25vOqfVb6r5Yw3G-1" value="DAG File (e.g., `my_pipeline_dag.py`)" style="rounded=1;whiteSpace=wrap;html=1;fillColor=#dae8fc;strokeColor=#6c8ebf;" parent="1" vertex="1">
                    <mxGeometry x="10" y="80" width="220" height="30" as="geometry"/>
                </mxCell>
                <mxCell id="lQ8-b25vOqfVb6r5Yw3G-2" value="Factory Function&lt;br&gt;(e.g., `create_standard_dag`)" style="rounded=1;whiteSpace=wrap;html=1;fillColor=#d5e8d4;strokeColor=#82b366;" parent="1" vertex="1">
                    <mxGeometry x="290" y="140" width="180" height="40" as="geometry"/>
                </mxCell>
                <mxCell id="lQ8-b25vOqfVb6r5Yw3G-3" value="Standard `airflow.models.dag.DAG` Class" style="rounded=1;whiteSpace=wrap;html=1;fillColor=#ffe6cc;strokeColor=#d79b00;" parent="1" vertex="1">
                    <mxGeometry x="660" y="150" width="250" height="30" as="geometry"/>
                </mxCell>
                <mxCell id="lQ8-b25vOqfVb6r5Yw3G-4" value="DAG Instance (Object)" style="ellipse;whiteSpace=wrap;html=1;fillColor=#f8cecc;strokeColor=#b85450;" parent="1" vertex="1">
                    <mxGeometry x="550" y="420" width="140" height="30" as="geometry"/>
                </mxCell>
                <mxCell id="lQ8-b25vOqfVb6r5Yw3G-5" value="" style="endArrow=classic;html=1;rounded=0;entryX=0;entryY=0.5;entryDx=0;entryDy=0;" parent="1" target="lQ8-b25vOqfVb6r5Yw3G-2" edge="1">
                    <mxGeometry width="50" height="50" relative="1" as="geometry">
                        <mxPoint x="200" y="160" as="sourcePoint"/>
                        <mxPoint x="250" y="110" as="targetPoint"/>
                    </mxGeometry>
                </mxCell>
                <mxCell id="lQ8-b25vOqfVb6r5Yw3G-6" value="1. Imports &amp;amp; Calls Factory&lt;br&gt;(`dag_id`, overrides...)" style="edgeLabel;html=1;align=center;verticalAlign=middle;resizable=0;points=[];" parent="lQ8-b25vOqfVb6r5Yw3G-5" vertex="1" connectable="0">
                    <mxGeometry width="150" height="40" relative="1" as="geometry">
                        <mxPoint x="-115" y="-20" as="offset"/>
                    </mxGeometry>
                </mxCell>
                <mxCell id="lQ8-b25vOqfVb6r5Yw3G-7" value="" style="endArrow=classic;html=1;rounded=0;entryX=0;entryY=0.5;entryDx=0;entryDy=0;" parent="1" target="lQ8-b25vOqfVb6r5Yw3G-3" edge="1">
                    <mxGeometry width="50" height="50" relative="1" as="geometry">
                        <mxPoint x="460" y="160" as="sourcePoint"/>
                        <mxPoint x="510" y="110" as="targetPoint"/>
                    </mxGeometry>
                </mxCell>
                <mxCell id="lQ8-b25vOqfVb6r5Yw3G-8" value="3. Instantiates DAG Class&lt;br&gt;(with final args)" style="edgeLabel;html=1;align=center;verticalAlign=middle;resizable=0;points=[];" parent="lQ8-b25vOqfVb6r5Yw3G-7" vertex="1" connectable="0">
                    <mxGeometry width="150" height="40" relative="1" as="geometry">
                        <mxPoint x="-75" y="-20" as="offset"/>
                    </mxGeometry>
                </mxCell>
                <mxCell id="lQ8-b25vOqfVb6r5Yw3G-12" value="" style="endArrow=classic;html=1;rounded=0;exitX=0.5;exitY=1;exitDx=0;exitDy=0;entryX=0.75;entryY=0;entryDx=0;entryDy=0;" parent="1" source="lQ8-b25vOqfVb6r5Yw3G-3" target="lQ8-b25vOqfVb6r5Yw3G-4" edge="1">
                    <mxGeometry width="50" height="50" relative="1" as="geometry">
                        <mxPoint x="650" y="210" as="sourcePoint"/>
                        <mxPoint x="530" y="340" as="targetPoint"/>
                        <Array as="points"/>
                    </mxGeometry>
                </mxCell>
                <mxCell id="lQ8-b25vOqfVb6r5Yw3G-13" value="4. Returns DAG Instance" style="edgeLabel;html=1;align=center;verticalAlign=middle;resizable=0;points=[];" parent="lQ8-b25vOqfVb6r5Yw3G-12" vertex="1" connectable="0">
                    <mxGeometry width="150" height="30" relative="1" as="geometry">
                        <mxPoint x="-53" y="-26" as="offset"/>
                    </mxGeometry>
                </mxCell>
                <mxCell id="lQ8-b25vOqfVb6r5Yw3G-14" value="" style="endArrow=classic;html=1;rounded=0;exitX=0.343;exitY=0.033;exitDx=0;exitDy=0;entryX=0.5;entryY=1;entryDx=0;entryDy=0;exitPerimeter=0;" parent="1" source="lQ8-b25vOqfVb6r5Yw3G-4" target="lQ8-b25vOqfVb6r5Yw3G-2" edge="1">
                    <mxGeometry width="50" height="50" relative="1" as="geometry">
                        <mxPoint x="480" y="310" as="sourcePoint"/>
                        <mxPoint x="380" y="200" as="targetPoint"/>
                        <Array as="points">
                            <mxPoint x="470" y="300"/>
                        </Array>
                    </mxGeometry>
                </mxCell>
                <mxCell id="lQ8-b25vOqfVb6r5Yw3G-15" value="5. Factory Returns Instance" style="edgeLabel;html=1;align=center;verticalAlign=middle;resizable=0;points=[];" parent="lQ8-b25vOqfVb6r5Yw3G-14" vertex="1" connectable="0">
                    <mxGeometry width="160" height="30" relative="1" as="geometry">
                        <mxPoint x="-95" y="-25" as="offset"/>
                    </mxGeometry>
                </mxCell>
                <mxCell id="lQ8-b25vOqfVb6r5Yw3G-16" value="" style="endArrow=classic;html=1;rounded=0;entryX=0.5;entryY=1;entryDx=0;entryDy=0;" parent="1" target="lQ8-b25vOqfVb6r5Yw3G-1" edge="1">
                    <mxGeometry width="50" height="50" relative="1" as="geometry">
                        <mxPoint x="320" y="180" as="sourcePoint"/>
                        <mxPoint x="200" y="160" as="targetPoint"/>
                        <Array as="points">
                            <mxPoint x="300" y="240"/>
                            <mxPoint x="250" y="240"/>
                            <mxPoint x="120" y="240"/>
                            <mxPoint x="120" y="160"/>
                        </Array>
                    </mxGeometry>
                </mxCell>
                <mxCell id="lQ8-b25vOqfVb6r5Yw3G-17" value="6. DAG file receives configured DAG instance&lt;br&gt;(used in `with` block)" style="edgeLabel;html=1;align=center;verticalAlign=middle;resizable=0;points=[];" parent="lQ8-b25vOqfVb6r5Yw3G-16" vertex="1" connectable="0">
                    <mxGeometry width="250" height="40" relative="1" as="geometry">
                        <mxPoint x="-92" y="-29" as="offset"/>
                    </mxGeometry>
                </mxCell>
                <mxCell id="lQ8-b25vOqfVb6r5Yw3G-19" value="Project Defaults/Standards&lt;br&gt;(Owner, Retries, Standard Tags etc.)" style="shape=cylinder3;whiteSpace=wrap;html=1;boundedLbl=1;backgroundOutline=1;size=15;fillColor=#fff2cc;strokeColor=#d6b656;" parent="1" vertex="1">
                    <mxGeometry x="150" y="370" width="220" height="100" as="geometry"/>
                </mxCell>
                <mxCell id="lQ8-b25vOqfVb6r5Yw3G-20" value="" style="endArrow=classic;html=1;rounded=0;exitX=0.5;exitY=0;exitDx=0;exitDy=0;entryX=0.5;entryY=1;entryDx=0;entryDy=0;" parent="1" source="lQ8-b25vOqfVb6r5Yw3G-19" target="lQ8-b25vOqfVb6r5Yw3G-2" edge="1">
                    <mxGeometry width="50" height="50" relative="1" as="geometry">
                        <mxPoint x="370" y="230" as="sourcePoint"/>
                        <mxPoint x="420" y="180" as="targetPoint"/>
                    </mxGeometry>
                </mxCell>
                <mxCell id="lQ8-b25vOqfVb6r5Yw3G-21" value="2. Factory Accesses Defaults &amp;amp;&lt;br&gt;Merges with Overrides" style="edgeLabel;html=1;align=center;verticalAlign=middle;resizable=0;points=[];" parent="lQ8-b25vOqfVb6r5Yw3G-20" vertex="1" connectable="0">
                    <mxGeometry width="180" height="40" relative="1" as="geometry">
                        <mxPoint x="-90" y="-20" as="offset"/>
                    </mxGeometry>
                </mxCell>
                <mxCell id="lQ8-b25vOqfVb6r5Yw3G-22" value="Airflow DAG Creation using Factory Function" style="text;html=1;strokeColor=none;fillColor=none;align=center;verticalAlign=middle;whiteSpace=wrap;rounded=0;fontSize=16;fontStyle=1" parent="1" vertex="1">
                    <mxGeometry x="230" y="40" width="340" height="30" as="geometry"/>
                </mxCell>
            </root>
        </mxGraphModel>
    </diagram>
</mxfile>